<svg width="1200" height="675" viewBox="0 0 1200 675" fill="none" xmlns="http://www.w3.org/2000/svg" role="img" aria-labelledby="title desc">
<title id="title">Featured medical update</title><desc id="desc">Polished abstract thumbnail for an embedded educational video.</desc>
<defs><linearGradient id="g" x1="0" y1="0" x2="1200" y2="675"><stop stop-color="#F7FFFD"/><stop offset="1" stop-color="#EAF6FA"/></linearGradient><linearGradient id="a" x1="338" y1="140" x2="866" y2="542"><stop stop-color="#0f9d92"/><stop offset="1" stop-color="#fbbf24"/></linearGradient><filter id="s" x="260" y="80" width="680" height="510" filterUnits="userSpaceOnUse"><feDropShadow dx="0" dy="30" stdDeviation="32" flood-color="#08212C" flood-opacity="0.16"/></filter></defs>
<rect width="1200" height="675" rx="44" fill="url(#g)"/><circle cx="118" cy="92" r="142" fill="#0f9d92" fill-opacity="0.12"/><circle cx="1070" cy="600" r="210" fill="#fbbf24" fill-opacity="0.10"/><path d="M90 526C252 424 413 444 575 524C741 606 912 598 1110 466" stroke="#0F9D92" stroke-opacity="0.13" stroke-width="20" stroke-linecap="round"/>
<g filter="url(#s)"><rect x="304" y="112" width="592" height="410" rx="42" fill="#FFFFFF" fill-opacity="0.86"/><rect x="336" y="144" width="528" height="296" rx="32" fill="url(#a)" fill-opacity="0.14"/><circle cx="600" cy="292" r="88" fill="url(#a)"/><path d="M580 248L653 292L580 336V248Z" fill="white"/><rect x="368" y="468" width="180" height="14" rx="7" fill="#153846" fill-opacity="0.8"/><rect x="368" y="494" width="330" height="10" rx="5" fill="#5D7480" fill-opacity="0.44"/><rect x="736" y="468" width="96" height="24" rx="12" fill="#fbbf24" fill-opacity="0.16"/></g>
</svg>