<svg width="1200" height="800" viewBox="0 0 1200 800" fill="none" xmlns="http://www.w3.org/2000/svg" role="img" aria-labelledby="title desc">
  <title id="title">Extended Package</title>
  <desc id="desc">Generated consultation image asset for Extended Package.</desc>
  <defs>
    <linearGradient id="bg" x1="0" y1="0" x2="1200" y2="800" gradientUnits="userSpaceOnUse">
      <stop stop-color="#0f3b5f"/>
      <stop offset="1" stop-color="#38bdf8"/>
    </linearGradient>
    <radialGradient id="glow" cx="0" cy="0" r="1" gradientUnits="userSpaceOnUse" gradientTransform="translate(600 360) rotate(90) scale(360 520)">
      <stop stop-color="#ffffff" stop-opacity="0.42"/>
      <stop offset="1" stop-color="#ffffff" stop-opacity="0"/>
    </radialGradient>
  </defs>
  <rect width="1200" height="800" rx="0" fill="url(#bg)"/>
  <circle cx="178" cy="142" r="92" fill="#ffffff" opacity="0.14"/>
  <circle cx="1028" cy="652" r="142" fill="#ffffff" opacity="0.14"/>
  <path d="M90 610C254 502 388 560 525 628C682 706 852 706 1110 540" stroke="#ffffff" stroke-opacity="0.18" stroke-width="42" stroke-linecap="round"/>
  <rect x="300" y="130" width="600" height="540" rx="52" fill="url(#glow)" stroke="#ffffff" stroke-opacity="0.22" stroke-width="4"/>
  <rect x="390" y="236" width="420" height="276" rx="34" fill="#ffffff" opacity="0.96"/><rect x="434" y="296" width="92" height="78" rx="18" fill="#e6fbff" stroke="#0f3b5f" stroke-width="8"/><rect x="554" y="296" width="92" height="78" rx="18" fill="#e6fbff" stroke="#0f3b5f" stroke-width="8"/><rect x="674" y="296" width="92" height="78" rx="18" fill="#e6fbff" stroke="#0f3b5f" stroke-width="8"/><path d="M458 430h284" stroke="#0f3b5f" stroke-width="18" stroke-linecap="round"/><path d="M458 466h192" stroke="#14b8a6" stroke-width="18" stroke-linecap="round"/><circle cx="480" cy="335" r="16" fill="#14b8a6"/><circle cx="600" cy="335" r="16" fill="#14b8a6"/><circle cx="720" cy="335" r="16" fill="#14b8a6"/>
  <text x="600" y="636" text-anchor="middle" fill="#ffffff" font-family="Inter, Arial, sans-serif" font-size="58" font-weight="800">Extended Package</text>
  <text x="600" y="692" text-anchor="middle" fill="#eaffff" font-family="Inter, Arial, sans-serif" font-size="32" font-weight="600" opacity="0.92">3-month support</text>
</svg>
