<svg width="1200" height="800" viewBox="0 0 1200 800" fill="none" xmlns="http://www.w3.org/2000/svg" role="img" aria-labelledby="title desc">
  <title id="title">Supplement Selection</title>
  <desc id="desc">Generated consultation image asset for Supplement Selection.</desc>
  <defs>
    <linearGradient id="bg" x1="0" y1="0" x2="1200" y2="800" gradientUnits="userSpaceOnUse">
      <stop stop-color="#7c3aed"/>
      <stop offset="1" stop-color="#c4b5fd"/>
    </linearGradient>
    <radialGradient id="glow" cx="0" cy="0" r="1" gradientUnits="userSpaceOnUse" gradientTransform="translate(600 360) rotate(90) scale(360 520)">
      <stop stop-color="#ffffff" stop-opacity="0.42"/>
      <stop offset="1" stop-color="#ffffff" stop-opacity="0"/>
    </radialGradient>
  </defs>
  <rect width="1200" height="800" rx="0" fill="url(#bg)"/>
  <circle cx="178" cy="142" r="92" fill="#ffffff" opacity="0.14"/>
  <circle cx="1028" cy="652" r="142" fill="#ffffff" opacity="0.14"/>
  <path d="M90 610C254 502 388 560 525 628C682 706 852 706 1110 540" stroke="#ffffff" stroke-opacity="0.18" stroke-width="42" stroke-linecap="round"/>
  <rect x="300" y="130" width="600" height="540" rx="52" fill="url(#glow)" stroke="#ffffff" stroke-opacity="0.22" stroke-width="4"/>
  <rect x="430" y="274" width="130" height="258" rx="34" fill="#ffffff" opacity="0.96"/><rect x="455" y="224" width="80" height="66" rx="16" fill="#e6fbff" stroke="#0f3b5f" stroke-width="8"/><rect x="642" y="260" width="128" height="272" rx="34" fill="#ffffff" opacity="0.96"/><rect x="670" y="210" width="72" height="66" rx="16" fill="#ede9fe" stroke="#0f3b5f" stroke-width="8"/><path d="M462 388h68M462 434h68M674 376h64M674 422h64" stroke="#0f3b5f" stroke-width="14" stroke-linecap="round"/><circle cx="600" cy="500" r="34" fill="#14b8a6" opacity="0.9"/><circle cx="650" cy="536" r="26" fill="#38bdf8" opacity="0.9"/><circle cx="550" cy="536" r="26" fill="#a78bfa" opacity="0.9"/>
  <text x="600" y="636" text-anchor="middle" fill="#ffffff" font-family="Inter, Arial, sans-serif" font-size="58" font-weight="800">Supplement Selection</text>
  <text x="600" y="692" text-anchor="middle" fill="#eaffff" font-family="Inter, Arial, sans-serif" font-size="32" font-weight="600" opacity="0.92">Personalized guidance</text>
</svg>
